<svg xmlns="http://www.w3.org/2000/svg" viewBox="0 0 1009.6451 1026.27041">
	<g style="isolation:isolate">
		<rect x="380.2593" y="715.70805" width="718.28792" height="4.5999"
			transform="translate(-270.95032 830.17101) rotate(-49.766)" style="fill:currentColor" />
		<rect x="380.2593" y="715.70805" width="718.28792" height="4.5999"
			transform="translate(-270.95032 830.17101) rotate(-49.766)"
			style="fill:none;stroke:#fff;stroke-miterlimit:99.99322424102262;stroke-width:29.99949617729385px" />
	</g>
	<g style="isolation:isolate">
		<rect x="412.48198" y="341.10926" width="4.59995" height="661.29213"
			transform="translate(-156.29572 154.65668) rotate(-16.27831)" style="fill:currentColor" />
		<rect x="412.48198" y="341.10926" width="4.59995" height="661.29213"
			transform="translate(-156.29572 154.65668) rotate(-16.27831)"
			style="fill:none;stroke:#fff;stroke-miterlimit:99.99520578858646;stroke-width:29.999642045951372px" />
	</g>
	<g style="isolation:isolate">
		<rect x="893.02353" y="278.701" width="4.59989" height="194.49645"
			transform="translate(23.65906 782.51798) rotate(-46.787)" style="fill:currentColor" />
		<rect x="893.02353" y="278.701" width="4.59989" height="194.49645"
			transform="translate(23.65906 782.51798) rotate(-46.787)"
			style="fill:none;stroke:#fff;stroke-miterlimit:99.99277571597892;stroke-width:29.99945316865441px" />
	</g>
	<g style="isolation:isolate">
		<rect x="726.00507" y="90.68113" width="4.60023" height="256.11399"
			transform="translate(85.60392 611.27119) rotate(-46.79092)" style="fill:currentColor" />
		<rect x="726.00507" y="90.68113" width="4.60023" height="256.11399"
			transform="translate(85.60392 611.27119) rotate(-46.79092)"
			style="fill:none;stroke:#fff;stroke-miterlimit:100.02197008807423;stroke-width:30.001640041665027px" />
	</g>
	<g style="isolation:isolate">
		<rect x="565.33801" y="-14.567" width="4.60023" height="164.80901"
			transform="translate(144.92503 446.58276) rotate(-46.79092)" style="fill:currentColor" />
		<rect x="565.33801" y="-14.567" width="4.60023" height="164.80901"
			transform="translate(144.92503 446.58276) rotate(-46.79092)"
			style="fill:none;stroke:#fff;stroke-miterlimit:100.02197008807423;stroke-width:30.001640041665027px" />
	</g>
	<g style="isolation:isolate">
		<rect x="676.07438" y="390.49006" width="4.59976" height="346.98347"
			transform="translate(-121.10194 237.37561) rotate(-17.20636)" style="fill:currentColor" />
		<rect x="676.07438" y="390.49006" width="4.59976" height="346.98347"
			transform="translate(-121.10194 237.37561) rotate(-17.20636)"
			style="fill:none;stroke:#fff;stroke-miterlimit:99.98083949358623;stroke-width:29.998570642540166px" />
	</g>
	<g style="isolation:isolate">
		<rect x="558.48014" y="3.50782" width="4.59976" height="361.38277"
			transform="translate(-14.01976 185.59261) rotate(-17.20636)" style="fill:currentColor" />
		<rect x="558.48014" y="3.50782" width="4.59976" height="361.38277"
			transform="translate(-14.01976 185.59261) rotate(-17.20636)"
			style="fill:none;stroke:#fff;stroke-miterlimit:99.98083949358623;stroke-width:29.998570642540166px" />
	</g>
	<g style="isolation:isolate">
		<rect x="-129.89062" y="307.85473" width="775.0279" height="1.00004"
			transform="translate(-128.80826 317.23297) rotate(-49.75355)" style="fill:currentColor" />
		<rect x="-129.89062" y="307.85473" width="775.0279" height="1.00004"
			transform="translate(-128.80826 317.23297) rotate(-49.75355)"
			style="fill:none;stroke:#fff;stroke-miterlimit:100.0144076787828;stroke-width:30.00108122003136px" />
	</g>
	<g style="isolation:isolate">
		<rect x="-33.38255" y="477.70513" width="401.1938" height="0.99998"
			transform="translate(-245.96539 219.51078) rotate(-38.49964)" style="fill:currentColor" />
		<rect x="-33.38255" y="477.70513" width="401.1938" height="0.99998"
			transform="translate(-245.96539 219.51078) rotate(-38.49964)"
			style="fill:none;stroke:#fff;stroke-miterlimit:99.99384905584209;stroke-width:29.99953485282412px" />
	</g>
	<g style="isolation:isolate">
		<rect x="255.00376" y="481.35518" width="4.60014" height="631.21856"
			transform="translate(-516.01553 526.78106) rotate(-52.45516)" style="fill:currentColor" />
		<rect x="255.00376" y="481.35518" width="4.60014" height="631.21856"
			transform="translate(-516.01553 526.78106) rotate(-52.45516)"
			style="fill:none;stroke:#fff;stroke-miterlimit:100.01163670806491;stroke-width:30.00088168280534px" />
	</g>
	<g style="isolation:isolate">
		<rect x="366.20149" y="298.49198" width="4.60003" height="732.80457"
			transform="translate(-332.55589 930.5362) rotate(-80.53768)" style="fill:currentColor" />
		<rect x="366.20149" y="298.49198" width="4.60003" height="732.80457"
			transform="translate(-332.55589 930.5362) rotate(-80.53768)"
			style="fill:none;stroke:#fff;stroke-miterlimit:100.00241729613202;stroke-width:30.000185024375362px" />
	</g>
	<g style="isolation:isolate">
		<rect x="219.86824" y="180.62754" width="389.79457" height="4.59994"
			transform="translate(71.98978 472.28079) rotate(-61.60766)" style="fill:currentColor" />
		<rect x="219.86824" y="180.62754" width="389.79457" height="4.59994"
			transform="translate(71.98978 472.28079) rotate(-61.60766)"
			style="fill:none;stroke:#fff;stroke-miterlimit:99.994413107321;stroke-width:29.999585053668813px" />
	</g>
	<g style="isolation:isolate">
		<rect x="644.24545" y="75.56292" width="4.60019" height="645.5295"
			transform="translate(179.12713 995.96388) rotate(-82.16078)" style="fill:currentColor" />
		<rect x="644.24545" y="75.56292" width="4.60019" height="645.5295"
			transform="translate(179.12713 995.96388) rotate(-82.16078)"
			style="fill:none;stroke:#fff;stroke-miterlimit:100.01837523368016;stroke-width:30.001371908346986px" />
	</g>
	<g style="isolation:isolate">
		<rect x="624.5768" y="224.89694" width="4.59976" height="346.9835"
			transform="translate(-74.42191 214.73087) rotate(-17.20636)" style="fill:currentColor" />
		<rect x="624.5768" y="224.89694" width="4.59976" height="346.9835"
			transform="translate(-74.42191 214.73087) rotate(-17.20636)"
			style="fill:none;stroke:#fff;stroke-miterlimit:99.98083949358623;stroke-width:29.998570642540166px" />
	</g>
</svg>